<svg width="26" height="26" viewBox="0 0 26 26" fill="none" xmlns="http://www.w3.org/2000/svg">
	<path fill-rule="evenodd" clip-rule="evenodd"
		d="M12.6154 9.78835C13.2037 9.78835 13.7908 9.57912 14.2585 9.15943C15.1668 8.34466 16.3311 7.89666 17.5385 7.89666C20.1896 7.89666 22.4616 11.28 22.4616 14.0505C22.4616 17.509 19.5631 22.4616 17.5385 22.4616C17.0474 22.4616 16.5268 22.2745 15.989 21.9077C14.9982 21.232 13.8314 20.8751 12.6154 20.8751C11.3994 20.8751 10.2327 21.232 9.24189 21.9077C8.70405 22.2745 8.18343 22.4616 7.69236 22.4616C5.66774 22.4616 2.76928 17.509 2.76928 14.0505C2.76928 11.28 5.04128 7.89666 7.69236 7.89666C8.89974 7.89666 10.064 8.34466 10.9724 9.15943C11.44 9.57912 12.0271 9.78835 12.6154 9.78835ZM17.5385 5.43512C15.9619 5.43512 14.5034 5.93359 13.3059 6.77789C13.0979 6.92312 12.8567 6.99574 12.6154 6.99574C12.3742 6.99574 12.133 6.92312 11.925 6.77789C10.7274 5.93359 9.26897 5.43512 7.69235 5.43512C3.61359 5.43512 0.307739 9.97297 0.307739 14.0505C0.307739 18.1293 3.61359 24.9231 7.69235 24.9231C10.192 24.9231 10.5317 23.3367 12.6154 23.3367C14.6819 23.3367 15.0647 24.9231 17.5385 24.9231C21.6173 24.9231 24.9231 18.1293 24.9231 14.0505C24.9231 9.97297 21.6173 5.43512 17.5385 5.43512ZM10.3342 0.307739C9.90466 0.307739 9.44805 0.376662 8.97789 0.509585C8.59512 1.85482 8.74405 3.09789 9.52066 3.87451C10.1754 4.52928 11.3225 4.90097 12.6 4.90097C12.84 4.90097 13.0837 4.88866 13.3299 4.86159C13.4985 3.3022 13.1194 1.8302 12.3428 1.05235C11.837 0.546508 11.1342 0.307739 10.3342 0.307739Z"
		fill="currentColor" />
</svg>
