<svg xmlns="http://www.w3.org/2000/svg" width="20" height="20" fill="none">
	<path fill="#fff" d="M20 20H0V0h20z" opacity=".01" />
	<path stroke="#F5A623" stroke-linejoin="round" stroke-width="2"
		d="M8.6 13.8a1 1 0 0 0-.37-.776c-1.043-.848-1.5-2.365-1.069-3.767C7.59 7.864 8.761 7 10 7c1.239 0 2.41.864 2.839 2.257.431 1.402-.027 2.92-1.07 3.767a1 1 0 0 0-.37.776v3.467c0 .482-.342.733-.6.733H9.2c-.257 0-.6-.251-.6-.733V13.8Z" />
	<path fill="#F5A623"
		d="M9 14h2v4H9zM10 5c.552 0 1-.336 1-.75v-1.5c0-.414-.448-.75-1-.75s-1 .336-1 .75v1.5c0 .414.448.75 1 .75ZM17.25 9h-1.5c-.414 0-.75.448-.75 1s.336 1 .75 1h1.5c.414 0 .75-.448.75-1s-.336-1-.75-1ZM4.25 9h-1.5C2.336 9 2 9.448 2 10s.336 1 .75 1h1.5c.414 0 .75-.448.75-1s-.336-1-.75-1ZM6.721 5.49 5.476 4.242a.866.866 0 0 0-1.237.035.898.898 0 0 0 .035 1.255l1.245 1.22A.858.858 0 0 0 6.151 7c.235 0 .46-.099.622-.272a.887.887 0 0 0-.052-1.238ZM15.742 4.258a.863.863 0 0 0-1.231 0l-1.257 1.216a.898.898 0 0 0 0 1.25.867.867 0 0 0 .628.276c.225 0 .44-.09.603-.248l1.257-1.234a.895.895 0 0 0 0-1.26Z" />
	<path stroke="#fff" stroke-linecap="square" d="M7.5 17.5h5M7.5 15.5h5" />
</svg>
