<svg width="23" height="18" viewBox="0 0 23 18" fill="none" xmlns="http://www.w3.org/2000/svg">
<path fill-rule="evenodd" clip-rule="evenodd" d="M13.6198 4.89284C13.6198 4.30141 14.0998 3.82141 14.6913 3.82141C15.2827 3.82141 15.7627 4.30141 15.7627 4.89284C15.7627 5.48427 15.2827 5.96427 14.6913 5.96427C14.0998 5.96427 13.6198 5.48427 13.6198 4.89284ZM14.4234 8.37498L17.9056 12.9286H5.04841L9.88912 6.29855L12.9277 10.3839L14.4234 8.37498ZM20.0484 14C20.0484 14.5914 19.5684 15.0714 18.977 15.0714H3.97698C3.38555 15.0714 2.90555 14.5914 2.90555 14V3.2857C2.90555 2.69427 3.38555 2.21427 3.97698 2.21427H18.977C19.5684 2.21427 20.0484 2.69427 20.0484 3.2857V14ZM20.0484 0.0714111H2.90555C1.7227 0.0714111 0.762695 1.03034 0.762695 2.21427V15.0714C0.762695 16.2543 1.7227 17.2143 2.90555 17.2143H20.0484C21.2323 17.2143 22.1913 16.2543 22.1913 15.0714V2.21427C22.1913 1.03034 21.2323 0.0714111 20.0484 0.0714111Z" fill="#BEBEBE"/>
</svg>
