<svg width="41" height="40" viewBox="0 0 41 40" fill="none" xmlns="http://www.w3.org/2000/svg">
	<g filter="url(#filter0_d_20_1480)">
		<path d="M18.0967 4.93333C22.3633 4.93333 22.8967 4.93333 24.63 5.06667C29.03 5.2 31.03 7.33333 31.1633 11.6C31.2967 13.3333 31.2967 13.7333 31.2967 18C31.2967 22.2667 31.2967 22.8 31.1633 24.4C31.03 28.6667 28.8967 30.8 24.63 30.9333C22.8967 31.0667 22.4967 31.0667 18.0967 31.0667C13.83 31.0667 13.2967 31.0667 11.6967 30.9333C7.29668 30.8 5.29668 28.6667 5.16335 24.4C5.03001 22.6667 5.03001 22.2667 5.03001 18C5.03001 13.7333 5.03001 13.2 5.16335 11.6C5.29668 7.33333 7.43001 5.2 11.6967 5.06667C13.2967 4.93333 13.83 4.93333 18.0967 4.93333ZM18.0967 2C13.6967 2 13.1633 2 11.5633 2.13333C5.69668 2.4 2.49668 5.6 2.23001 11.4667C2.09668 13.0667 2.09668 13.6 2.09668 18C2.09668 22.4 2.09668 22.9333 2.23001 24.5333C2.49668 30.4 5.69668 33.6 11.5633 33.8667C13.1633 34 13.6967 34 18.0967 34C22.4967 34 23.03 34 24.63 33.8667C30.4967 33.6 33.6967 30.4 33.9633 24.5333C34.0967 22.9333 34.0967 22.4 34.0967 18C34.0967 13.6 34.0967 13.0667 33.9633 11.4667C33.6967 5.6 30.4967 2.4 24.63 2.13333C23.03 2 22.4967 2 18.0967 2ZM18.0967 9.73333C13.5633 9.73333 9.83001 13.4667 9.83001 18C9.83001 22.5333 13.5633 26.2667 18.0967 26.2667C22.63 26.2667 26.3633 22.5333 26.3633 18C26.3633 13.4667 22.63 9.73333 18.0967 9.73333ZM18.0967 23.3333C15.1633 23.3333 12.7633 20.9333 12.7633 18C12.7633 15.0667 15.1633 12.6667 18.0967 12.6667C21.03 12.6667 23.43 15.0667 23.43 18C23.43 20.9333 21.03 23.3333 18.0967 23.3333ZM26.63 7.6C25.5633 7.6 24.7633 8.4 24.7633 9.46667C24.7633 10.5333 25.5633 11.3333 26.63 11.3333C27.6967 11.3333 28.4967 10.5333 28.4967 9.46667C28.4967 8.4 27.6967 7.6 26.63 7.6Z" fill="white" />
		<path d="M24.5533 6.06372L24.5765 6.0655L24.5997 6.06621C26.6555 6.1285 27.9643 6.6523 28.7841 7.48494C29.6068 8.32047 30.1014 9.63345 30.1638 11.6312L30.1645 11.654L30.1663 11.6767C30.2962 13.3656 30.2967 13.7277 30.2967 18C30.2967 22.2768 30.296 22.7663 30.1668 24.317L30.1646 24.3428L30.1638 24.3688C30.1019 26.351 29.5813 27.6678 28.7396 28.5096C27.8978 29.3513 26.581 29.8719 24.5988 29.9338L24.576 29.9345L24.5533 29.9363C22.8646 30.0662 22.503 30.0667 18.0967 30.0667C13.8199 30.0667 13.3304 30.066 11.7797 29.9368L11.7534 29.9346L11.727 29.9338C9.67119 29.8715 8.36241 29.3477 7.54258 28.5151C6.7199 27.6795 6.22529 26.3666 6.16286 24.3688L6.16215 24.346L6.1604 24.3233C6.03048 22.6344 6.03001 22.2723 6.03001 18C6.03001 13.7232 6.03067 13.2337 6.15989 11.683L6.16205 11.6572L6.16286 11.6312C6.2248 9.64902 6.74536 8.3322 7.58712 7.49044C8.42888 6.64868 9.7457 6.12812 11.7279 6.06618L11.7539 6.06537L11.7797 6.06321C13.3304 5.93399 13.8199 5.93333 18.0967 5.93333C22.3704 5.93333 22.8649 5.93384 24.5533 6.06372ZM18.0967 1H18.0325C13.7182 0.999997 13.1262 0.999996 11.4989 1.13524C8.40454 1.2792 5.87821 2.20426 4.08957 3.99289C2.30094 5.78153 1.37588 8.30786 1.23192 11.4022C1.09668 13.0296 1.09668 13.6215 1.09668 17.9358V18V18.0642C1.09668 22.3785 1.09668 22.9704 1.23192 24.5978C1.37588 27.6921 2.30093 30.2185 4.08957 32.0071C5.87821 33.7957 8.40453 34.7208 11.4989 34.8648C13.1263 35 13.7182 35 18.0326 35H18.0967H18.1607C22.4751 35 23.0671 35 24.6945 34.8648C27.7888 34.7208 30.3151 33.7957 32.1038 32.0071C33.8924 30.2185 34.8175 27.6921 34.9614 24.5978C35.0967 22.9704 35.0967 22.3785 35.0967 18.064V18V17.936C35.0967 13.6215 35.0967 13.0296 34.9614 11.4022C34.8175 8.30784 33.8924 5.78153 32.1038 3.99289C30.3151 2.20426 27.7888 1.2792 24.6945 1.13524C23.0671 0.999996 22.4751 0.999997 18.1609 1H18.0967ZM18.0967 8.73333C13.0111 8.73333 8.83001 12.9144 8.83001 18C8.83001 23.0856 13.0111 27.2667 18.0967 27.2667C23.1823 27.2667 27.3633 23.0856 27.3633 18C27.3633 15.648 26.4691 13.4895 25.0046 11.8486C25.4624 12.1561 26.0198 12.3333 26.63 12.3333C28.249 12.3333 29.4967 11.0856 29.4967 9.46667C29.4967 7.84772 28.249 6.6 26.63 6.6C25.0111 6.6 23.7633 7.84772 23.7633 9.46667C23.7633 10.0768 23.9406 10.6343 24.2481 11.092C22.6072 9.6276 20.4487 8.73333 18.0967 8.73333ZM18.0967 22.3333C15.7156 22.3333 13.7633 20.3811 13.7633 18C13.7633 15.619 15.7156 13.6667 18.0967 13.6667C20.4777 13.6667 22.43 15.619 22.43 18C22.43 20.3811 20.4777 22.3333 18.0967 22.3333Z" stroke="#1E18F6" stroke-width="2" />
	</g>
	<defs>
		<filter id="filter0_d_20_1480" x="0.0966797" y="0" width="40" height="40" filterUnits="userSpaceOnUse" color-interpolation-filters="sRGB">
			<feFlood flood-opacity="0" result="BackgroundImageFix" />
			<feColorMatrix in="SourceAlpha" type="matrix" values="0 0 0 0 0 0 0 0 0 0 0 0 0 0 0 0 0 0 127 0" result="hardAlpha" />
			<feOffset dx="4" dy="4" />
			<feComposite in2="hardAlpha" operator="out" />
			<feColorMatrix type="matrix" values="0 0 0 0 0.117647 0 0 0 0 0.0941176 0 0 0 0 0.964706 0 0 0 1 0" />
			<feBlend mode="normal" in2="BackgroundImageFix" result="effect1_dropShadow_20_1480" />
			<feBlend mode="normal" in="SourceGraphic" in2="effect1_dropShadow_20_1480" result="shape" />
		</filter>
	</defs>
</svg>
