<svg width="38" height="37" viewBox="0 0 38 37" fill="none" xmlns="http://www.w3.org/2000/svg">
	<g filter="url(#filter0_d_20_1479)">
		<path d="M8.25397 5.48489C8.25397 7.18186 6.92063 8.5152 5.22366 8.5152C3.52669 8.5152 2.19336 7.18186 2.19336 5.48489C2.19336 3.78792 3.52669 2.45459 5.22366 2.45459C6.92063 2.45459 8.25397 3.78792 8.25397 5.48489ZM8.25397 10.9394H2.19336V30.3334H8.25397V10.9394ZM17.9509 10.9394H11.8903V30.3334H17.9509V20.1516C17.9509 14.4546 25.2237 13.9697 25.2237 20.1516V30.3334H31.2843V18.091C31.2843 8.5152 20.4964 8.87883 17.9509 13.6061V10.9394Z" fill="white" />
		<path d="M9.25397 10.9394V9.93944H8.25397H2.19336H1.19336V10.9394V30.3334V31.3334H2.19336H8.25397H9.25397V30.3334V10.9394ZM18.9509 10.9394V9.93944H17.9509H11.8903H10.8903V10.9394V30.3334V31.3334H11.8903H17.9509H18.9509V30.3334V20.1516C18.9509 17.7841 20.3979 16.7372 21.6206 16.6965C22.2526 16.6754 22.8779 16.9093 23.3542 17.4226C23.8303 17.9357 24.2237 18.8032 24.2237 20.1516V30.3334V31.3334H25.2237H31.2843H32.2843V30.3334V18.091C32.2843 15.5032 31.5516 13.4883 30.3213 12.0386C29.0954 10.594 27.4426 9.78998 25.7406 9.49918C23.4029 9.09978 20.812 9.65728 18.9509 11.0166V10.9394ZM5.22366 9.5152C7.47292 9.5152 9.25397 7.73415 9.25397 5.48489C9.25397 3.23564 7.47292 1.45459 5.22366 1.45459C2.97441 1.45459 1.19336 3.23564 1.19336 5.48489C1.19336 7.73415 2.97441 9.5152 5.22366 9.5152Z" stroke="#1E18F6" stroke-width="2" />
	</g>
	<defs>
		<filter id="filter0_d_20_1479" x="0.193359" y="0.45459" width="37.0908" height="35.8788" filterUnits="userSpaceOnUse" color-interpolation-filters="sRGB">
			<feFlood flood-opacity="0" result="BackgroundImageFix" />
			<feColorMatrix in="SourceAlpha" type="matrix" values="0 0 0 0 0 0 0 0 0 0 0 0 0 0 0 0 0 0 127 0" result="hardAlpha" />
			<feOffset dx="4" dy="4" />
			<feComposite in2="hardAlpha" operator="out" />
			<feColorMatrix type="matrix" values="0 0 0 0 0.117647 0 0 0 0 0.0941176 0 0 0 0 0.964706 0 0 0 1 0" />
			<feBlend mode="normal" in2="BackgroundImageFix" result="effect1_dropShadow_20_1479" />
			<feBlend mode="normal" in="SourceGraphic" in2="effect1_dropShadow_20_1479" result="shape" />
		</filter>
	</defs>
</svg>
