<svg width="20" height="20" viewBox="0 0 20 20" fill="none" xmlns="http://www.w3.org/2000/svg">
	<path fill-rule="evenodd" clip-rule="evenodd"
		d="M17.8221 2.88C17.7601 2.379 17.3331 2 16.8281 2H14.3491C14.5861 3.614 14.7931 5.818 14.4451 7.157C16.0541 7.289 17.4081 6.964 17.8761 6.699C18.0691 6.116 18.0341 4.59 17.8221 2.88ZM16.0001 9.154C14.8681 9.24 13.5941 9.171 12.5441 8.819C11.7391 9.06 10.7591 9.19 9.78713 9.19C8.84113 9.19 7.91413 9.066 7.17613 8.818C6.32113 9.075 5.22313 9.225 4.00013 9.179V17C4.00013 17.552 4.44713 18 5.00013 18H9.00013V15C9.00013 14.448 9.44713 14 10.0001 14C10.5521 14 11.0001 14.448 11.0001 15V18H15.0001C15.5521 18 16.0001 17.552 16.0001 17V9.154ZM5.53913 7.12C5.23013 5.756 5.40913 3.59 5.61813 2H3.14513C2.63113 2 2.20413 2.392 2.14913 2.903C1.95813 4.661 1.94213 6.223 2.14113 6.805C2.90513 7.232 4.61713 7.235 5.53913 7.12ZM7.51113 6.805C8.51413 7.365 11.4941 7.275 12.5101 6.699C12.7351 6.017 12.6491 4.047 12.3331 2H7.62913C7.34013 4.105 7.27813 6.125 7.51113 6.805ZM19.3661 8.067C19.0641 8.368 18.5791 8.609 18.0001 8.792V18C18.0001 19.104 17.1041 20 16.0001 20H4.00013C2.89513 20 2.00013 19.104 2.00013 18V8.881C1.37013 8.696 0.855132 8.428 0.563132 8.067C-0.284868 7.017 0.00213171 3.758 0.285132 1.718C0.422132 0.73 1.26813 0 2.26513 0H17.6931C18.6801 0 19.5181 0.714 19.6701 1.689C19.9911 3.756 20.3301 7.103 19.3661 8.067ZM7.00013 10C6.44713 10 6.00013 10.448 6.00013 11V13C6.00013 13.552 6.44713 14 7.00013 14C7.55213 14 8.00013 13.552 8.00013 13V11C8.00013 10.448 7.55213 10 7.00013 10ZM14.0001 11V13C14.0001 13.552 13.5521 14 13.0001 14C12.4471 14 12.0001 13.552 12.0001 13V11C12.0001 10.448 12.4471 10 13.0001 10C13.5521 10 14.0001 10.448 14.0001 11Z"
		fill="currentColor" />
</svg>
