<svg width="40" height="35" viewBox="0 0 40 35" fill="none" xmlns="http://www.w3.org/2000/svg">
	<g filter="url(#filter0_d_20_1481)">
		<path d="M12.0637 28.9162C24.1397 28.9162 30.7437 18.9115 30.7437 10.2363C30.7437 9.95201 30.7379 9.66922 30.7248 9.38751C32.0066 8.46089 33.121 7.30424 34 5.98818C32.8237 6.51082 31.5579 6.86276 30.2298 7.02144C31.5852 6.20873 32.6261 4.92252 33.117 3.38954C31.8483 4.14183 30.4434 4.68849 28.9483 4.9833C27.7498 3.70727 26.0436 2.90912 24.1557 2.90912C20.5297 2.90912 17.5893 5.84951 17.5893 9.47377C17.5893 9.98913 17.6471 10.4899 17.7592 10.9707C12.3032 10.6967 7.46478 8.08383 4.22704 4.11163C3.66255 5.08156 3.33753 6.2091 3.33753 7.41124C3.33753 9.68887 4.49673 11.6997 6.25936 12.8764C5.18242 12.8433 4.17063 12.547 3.28585 12.0549C3.2844 12.0822 3.2844 12.1099 3.2844 12.1386C3.2844 15.3185 5.54783 17.9732 8.55155 18.5748C8.00016 18.7251 7.42001 18.8059 6.82095 18.8059C6.39803 18.8059 5.98676 18.7637 5.58677 18.6877C6.42241 21.2958 8.84635 23.1941 11.7201 23.2476C9.47272 25.0088 6.64188 26.0581 3.5661 26.0581C3.03654 26.0581 2.5139 26.0279 2 25.9671C4.90545 27.8291 8.35538 28.9162 12.0637 28.9162Z" fill="white" />
		<path d="M33.594 5.07432C33.5389 5.09879 33.4836 5.12286 33.4281 5.14652C33.6901 4.69064 33.906 4.2046 34.0694 3.69455C34.1961 3.29898 34.0651 2.86627 33.7402 2.60744C33.4153 2.3486 32.9643 2.31753 32.607 2.52938C31.5792 3.13883 30.4552 3.60203 29.2634 3.89056C27.9175 2.66125 26.1218 1.90912 24.1557 1.90912C19.9776 1.90912 16.5893 5.29704 16.5893 9.47377C16.5893 9.60649 16.5926 9.73852 16.5993 9.86979C11.9341 9.3148 7.82625 6.94453 5.00217 3.47982C4.79483 3.22545 4.47588 3.08899 4.14872 3.1147C3.82155 3.1404 3.52783 3.32499 3.36276 3.60862C2.71232 4.72623 2.33753 6.02661 2.33753 7.41124C2.33753 8.73139 2.67578 9.97378 3.27027 11.0551C3.10886 11.0576 2.94791 11.0991 2.80206 11.1798C2.5002 11.3466 2.30564 11.6573 2.28727 12.0017C2.28435 12.0565 2.28438 12.1079 2.28439 12.1338L2.2844 12.1386C2.2844 14.4512 3.32273 16.5219 4.95864 17.9095C4.91561 17.9443 4.87517 17.9828 4.83783 18.025C4.60412 18.2892 4.52685 18.6569 4.63446 18.9928C5.33117 21.1672 6.98557 22.9141 9.10215 23.7368C7.44011 24.582 5.55937 25.0581 3.5661 25.0581C3.07458 25.0581 2.59119 25.0301 2.11746 24.974C1.65476 24.9193 1.21558 25.1914 1.05853 25.63C0.901471 26.0687 1.06816 26.5577 1.46043 26.8091C4.52069 28.7703 8.15683 29.9162 12.0637 29.9162C24.8069 29.9162 31.7437 19.3414 31.7437 10.2363C31.7437 10.1158 31.7427 9.99521 31.7406 9.87456C32.9388 8.93746 33.9862 7.80931 34.8316 6.54357C35.0788 6.1734 35.0516 5.68438 34.7648 5.34393C34.478 5.00348 34.0008 4.89358 33.594 5.07432Z" stroke="#1E18F6" stroke-width="2" stroke-linejoin="round" />
	</g>
	<defs>
		<filter id="filter0_d_20_1481" x="0" y="0.909119" width="40" height="34.0071" filterUnits="userSpaceOnUse" color-interpolation-filters="sRGB">
			<feFlood flood-opacity="0" result="BackgroundImageFix" />
			<feColorMatrix in="SourceAlpha" type="matrix" values="0 0 0 0 0 0 0 0 0 0 0 0 0 0 0 0 0 0 127 0" result="hardAlpha" />
			<feOffset dx="4" dy="4" />
			<feComposite in2="hardAlpha" operator="out" />
			<feColorMatrix type="matrix" values="0 0 0 0 0.117647 0 0 0 0 0.0941176 0 0 0 0 0.964706 0 0 0 1 0" />
			<feBlend mode="normal" in2="BackgroundImageFix" result="effect1_dropShadow_20_1481" />
			<feBlend mode="normal" in="SourceGraphic" in2="effect1_dropShadow_20_1481" result="shape" />
		</filter>
	</defs>
</svg>
